<svg width="87" height="20" viewBox="0 0 87 20" fill="none" xmlns="http://www.w3.org/2000/svg">
<g clip-path="url(#clip0)">
<circle cx="24.5" cy="3.5" r="3.5" fill="#EC903C"/>
<path d="M8.66797 19L3.69922 4.69141H3.60547C3.73828 6.81641 3.80469 8.80859 3.80469 10.668V19H1.26172V1.86719H5.21094L9.96875 15.4961H10.0391L14.9375 1.86719H18.8984V19H16.2031V10.5273C16.2031 9.67578 16.2227 8.56641 16.2617 7.19922C16.3086 5.83203 16.3477 5.00391 16.3789 4.71484H16.2852L11.1406 19H8.66797ZM40.7539 19H37.9883V11.0312C37.9883 10.0312 37.7852 9.28516 37.3789 8.79297C36.9805 8.30078 36.3438 8.05469 35.4688 8.05469C34.3047 8.05469 33.4531 8.39844 32.9141 9.08594C32.375 9.77344 32.1055 10.9258 32.1055 12.543V19H29.3516V6.03906H31.5078L31.8945 7.73828H32.0352C32.4258 7.12109 32.9805 6.64453 33.6992 6.30859C34.418 5.97266 35.2148 5.80469 36.0898 5.80469C39.1992 5.80469 40.7539 7.38672 40.7539 10.5508V19ZM48.957 19.2344C47.3398 19.2344 46.0781 18.6484 45.1719 17.4766C44.2656 16.3047 43.8125 14.6602 43.8125 12.543C43.8125 10.418 44.2695 8.76562 45.1836 7.58594C46.1055 6.39844 47.3789 5.80469 49.0039 5.80469C50.707 5.80469 52.0039 6.43359 52.8945 7.69141H53.0352C52.9023 6.76172 52.8359 6.02734 52.8359 5.48828V0.765625H55.6016V19H53.4453L52.9648 17.3008H52.8359C51.9531 18.5898 50.6602 19.2344 48.957 19.2344ZM49.6953 17.0078C50.8281 17.0078 51.6523 16.6914 52.168 16.0586C52.6836 15.418 52.9492 14.3828 52.9648 12.9531V12.5664C52.9648 10.9336 52.6992 9.77344 52.168 9.08594C51.6367 8.39844 50.8047 8.05469 49.6719 8.05469C48.7031 8.05469 47.957 8.44922 47.4336 9.23828C46.9102 10.0195 46.6484 11.1367 46.6484 12.5898C46.6484 14.0273 46.9023 15.125 47.4102 15.8828C47.918 16.6328 48.6797 17.0078 49.6953 17.0078ZM66.043 8.125H62.8789V19H60.1133V8.125H57.9805V6.83594L60.1133 5.99219V5.14844C60.1133 3.61719 60.4727 2.48438 61.1914 1.75C61.9102 1.00781 63.0078 0.636719 64.4844 0.636719C65.4531 0.636719 66.4062 0.796875 67.3438 1.11719L66.6172 3.20312C65.9375 2.98438 65.2891 2.875 64.6719 2.875C64.0469 2.875 63.5898 3.07031 63.3008 3.46094C63.0195 3.84375 62.8789 4.42188 62.8789 5.19531V6.03906H66.043V8.125ZM77.3984 19L77.0117 17.3008H76.8711C76.4883 17.9023 75.9414 18.375 75.2305 18.7188C74.5273 19.0625 73.7227 19.2344 72.8164 19.2344C71.2461 19.2344 70.0742 18.8438 69.3008 18.0625C68.5273 17.2812 68.1406 16.0977 68.1406 14.5117V6.03906H70.918V14.0312C70.918 15.0234 71.1211 15.7695 71.5273 16.2695C71.9336 16.7617 72.5703 17.0078 73.4375 17.0078C74.5938 17.0078 75.4414 16.6641 75.9805 15.9766C76.5273 15.2812 76.8008 14.1211 76.8008 12.4961V6.03906H79.5664V19H77.3984ZM86.2461 19H83.4922V0.765625H86.2461V19Z" fill="black"/>
<path d="M24.5 8.5V19" stroke="black" stroke-width="3"/>
</g>
<defs>
<clipPath id="clip0">
<rect width="87" height="20" fill="white"/>
</clipPath>
</defs>
</svg>
